<svg id="SvgjsSvg1001" width="288" height="288" xmlns="http://www.w3.org/2000/svg" version="1.1" xmlns:xlink="http://www.w3.org/1999/xlink" xmlns:svgjs="http://svgjs.com/svgjs"><defs id="SvgjsDefs1002"></defs><g id="SvgjsG1008"><svg xmlns="http://www.w3.org/2000/svg" class="u-svg-content" viewBox="0 -48 480 480" width="288" height="288"><path d="M365.863 32.8A119.534 119.534 0 0 0 283.473 0h-93.07a119.218 119.218 0 0 0-84.86 35.152l-75.078 75.075A103.28 103.28 0 0 0 0 183.77v101.832C.086 339.91 44.09 383.918 98.402 384h283.2c54.308-.082 98.316-44.09 98.398-98.398V185.375a104.43 104.43 0 0 0-32.59-75.605zM464 285.603c-.066 45.48-36.918 82.332-82.398 82.398h-283.2c-45.484-.066-82.336-36.918-82.402-82.398V183.77a87.427 87.427 0 0 1 25.777-62.235l75.07-75.07A103.33 103.33 0 0 1 190.403 16h93.07a103.56 103.56 0 0 1 71.407 28.395l81.547 77.007a88.356 88.356 0 0 1 27.574 64zm0 0" fill="#facd3d" class="color000 svgShape"></path><path d="M190.402 48V32a88.198 88.198 0 0 0-24.617 3.48l4.445 15.36A72.809 72.809 0 0 1 190.402 48zM139.48 69.09a72.06 72.06 0 0 1 16.368-12.29l-7.696-14.03a88.346 88.346 0 0 0-20 15.015l-21.175 21.246 11.351 11.29zM381.602 232h-283.2a76.867 76.867 0 0 1-52.922-21.8l-11.023 11.6A92.79 92.79 0 0 0 98.402 248h283.2a92.788 92.788 0 0 0 63.941-26.2l-11.023-11.6a76.865 76.865 0 0 1-52.918 21.8zM135.137 167.61c-8.801 2.663-17.504 5.597-26.055 8.94l5.84 14.9a346.246 346.246 0 0 1 250.16 0l5.84-14.9c-8.555-3.359-17.266-6.277-26.059-8.94a67.046 67.046 0 0 1 48.739-39.77l-3.2-15.68a83.01 83.01 0 0 0-61.011 50.738l-.141.375a364.56 364.56 0 0 0-178.555 0l-.152-.367a82.993 82.993 0 0 0-60.941-50.746l-3.2 15.68a67.047 67.047 0 0 1 48.735 39.77zm0 0" fill="#facd3d" class="color000 svgShape"></path></svg></g></svg>